<svg width="64" height="64" viewBox="0 0 64 64" fill="none" xmlns="http://www.w3.org/2000/svg">
  <path d="M32 8C35.5 8 38.5 10.5 40 14C42.5 12 45.5 12 48 14C50.5 16 51 19.5 49 22C52 23.5 54 26.5 54 30C54 33.5 52 36.5 49 38C51 40.5 50.5 44 48 46C45.5 48 42.5 48 40 46C38.5 49.5 35.5 52 32 52C28.5 52 25.5 49.5 24 46C21.5 48 18.5 48 16 46C13.5 44 13 40.5 15 38C12 36.5 10 33.5 10 30C10 26.5 12 23.5 15 22C13 19.5 13.5 16 16 14C18.5 12 21.5 12 24 14C25.5 10.5 28.5 8 32 8Z" fill="url(#gradient)" stroke="url(#strokeGradient)" stroke-width="2"/>
  <defs>
    <linearGradient id="gradient" x1="0%" y1="0%" x2="100%" y2="100%">
      <stop offset="0%" style="stop-color:#5B73FF"/>
      <stop offset="100%" style="stop-color:#9B59B6"/>
    </linearGradient>
    <linearGradient id="strokeGradient" x1="0%" y1="0%" x2="100%" y2="100%">
      <stop offset="0%" style="stop-color:#4A6CFF"/>
      <stop offset="100%" style="stop-color:#8E44AD"/>
    </linearGradient>
  </defs>
</svg>